<svg id="Layer_1" data-name="Layer 1" xmlns="http://www.w3.org/2000/svg" viewBox="0 0 750 153.28"><defs><style>.cls-1{fill:#fff;}</style></defs><path d="M210.94,48.5H199.7V70.62H185.58V10.2H211q12.14,0,18.72,4.77t6.59,13.49a17,17,0,0,1-3,10.31,20.34,20.34,0,0,1-9.2,6.58L238.94,70v.58H223.79ZM199.7,38.42h11.38c3.55,0,6.29-.79,8.24-2.39a8,8,0,0,0,2.91-6.57,8.54,8.54,0,0,0-2.75-6.73c-1.83-1.63-4.65-2.44-8.44-2.44H199.7Z"/><path d="M303.35,41.78a32.8,32.8,0,0,1-3.58,15.65A24.88,24.88,0,0,1,289.54,67.8a33.79,33.79,0,0,1-30.47,0,25.26,25.26,0,0,1-10.35-10.31A32,32,0,0,1,245,42.11v-3a32.68,32.68,0,0,1,3.64-15.71A25.25,25.25,0,0,1,259,13a33.72,33.72,0,0,1,30.44,0,25.23,25.23,0,0,1,10.3,10.42,32.59,32.59,0,0,1,3.65,15.66ZM289,39q0-9.49-3.86-14.44c-2.56-3.29-6.24-4.94-11-4.94s-8.39,1.63-11,4.88-3.88,8-3.91,14.3v2.94q0,9.26,3.86,14.36t11.1,5.1q7.11,0,10.91-4.91T289,42Z"/><path d="M335.2,37.42,349.46,10.2h15.43L342.4,48.71V70.62H328.05V48.71L305.56,10.2H321Z"/><path d="M392.36,54.36A12.73,12.73,0,0,1,395,46.6q2.67-3.57,9.77-7.93a41.73,41.73,0,0,1-4.8-6.79,13.55,13.55,0,0,1-1.74-6.61,14.51,14.51,0,0,1,5.06-11.48q5.06-4.41,13.62-4.42,7.67,0,12.58,4a12.46,12.46,0,0,1,4.92,10q0,7.22-8.28,12.74l-5.27,3.36,11.81,12.12A20.89,20.89,0,0,0,435.47,41H447q0,11.77-6.17,19.08l10.26,10.5H435.7l-3.53-3.57a34,34,0,0,1-17.41,4.4q-10.15,0-16.28-4.71A14.88,14.88,0,0,1,392.36,54.36Zm23.06,7.42a18.9,18.9,0,0,0,9.27-2.4l-13.5-13.74-1,.62c-2.8,2.1-4.19,4.57-4.19,7.41a7.38,7.38,0,0,0,2.61,5.86A10.05,10.05,0,0,0,415.42,61.78Zm-5-36.68c0,2.07,1.38,4.69,4.14,7.84l3.63-2.11A11.83,11.83,0,0,0,422,27.76a6,6,0,0,0,1.06-3.57,4.66,4.66,0,0,0-1.74-3.61A6.48,6.48,0,0,0,416.88,19a6.56,6.56,0,0,0-4.68,1.66A5.75,5.75,0,0,0,410.43,25.1Z"/><path class="cls-1" d="M224.17,137.85H199.42l-4.71,12.45h-15l25.5-60.42h13.09l25.64,60.42h-15Zm-20.94-10.09h17.13l-8.62-22.61Z"/><path class="cls-1" d="M285.85,134.45A6.13,6.13,0,0,0,283,129c-1.89-1.26-5.27-2.59-10.17-4a79.14,79.14,0,0,1-11.62-4.13q-11.67-5.57-11.67-15a13.48,13.48,0,0,1,3.13-8.74,20.25,20.25,0,0,1,9-6,37.78,37.78,0,0,1,13.15-2.16,34.43,34.43,0,0,1,13.08,2.34A20.44,20.44,0,0,1,296.84,98a15.91,15.91,0,0,1,3.17,9.71H285.9a7.69,7.69,0,0,0-3-6.45c-2-1.54-4.75-2.3-8.33-2.3s-6.13.64-8,1.93a5.88,5.88,0,0,0-2.87,5.08q0,2.94,3.36,4.94a41.25,41.25,0,0,0,9.91,3.73q12,3.19,17.55,7.93a14.9,14.9,0,0,1,5.5,11.78,14,14,0,0,1-6.73,12.31q-6.72,4.46-18.11,4.46a39.09,39.09,0,0,1-14.4-2.55,22.51,22.51,0,0,1-9.9-7,16.38,16.38,0,0,1-3.41-10.29h14.16q0,10,13.55,10c3.36,0,6-.6,7.86-1.8A5.69,5.69,0,0,0,285.85,134.45Z"/><path class="cls-1" d="M345.09,134.45a6.13,6.13,0,0,0-2.83-5.42q-2.82-1.89-10.16-4a78.71,78.71,0,0,1-11.62-4.13q-11.67-5.57-11.67-15a13.43,13.43,0,0,1,3.13-8.74,20.21,20.21,0,0,1,9-6,37.84,37.84,0,0,1,13.16-2.16,34.43,34.43,0,0,1,13.08,2.34A20.47,20.47,0,0,1,356.07,98a15.86,15.86,0,0,1,3.18,9.71H345.13a7.71,7.71,0,0,0-3-6.45c-2-1.54-4.75-2.3-8.33-2.3s-6.13.64-8,1.93a5.87,5.87,0,0,0-2.86,5.08q0,2.94,3.36,4.94a41,41,0,0,0,9.9,3.73q12,3.19,17.55,7.93a14.91,14.91,0,0,1,5.51,11.78,14,14,0,0,1-6.73,12.31q-6.74,4.46-18.11,4.46a39.06,39.06,0,0,1-14.4-2.55,22.61,22.61,0,0,1-9.91-7,16.44,16.44,0,0,1-3.41-10.29h14.17q0,10,13.55,10,5,0,7.85-1.8A5.7,5.7,0,0,0,345.09,134.45Z"/><path class="cls-1" d="M425.07,121.46a32.73,32.73,0,0,1-3.58,15.64,25,25,0,0,1-10.23,10.38,33.76,33.76,0,0,1-30.46,0,25.34,25.34,0,0,1-10.36-10.31,32,32,0,0,1-3.71-15.42v-3a32.6,32.6,0,0,1,3.65-15.71,25.15,25.15,0,0,1,10.3-10.41,33.72,33.72,0,0,1,30.44,0,25.23,25.23,0,0,1,10.31,10.41,32.74,32.74,0,0,1,3.64,15.67Zm-14.3-2.74q0-9.51-3.86-14.44t-11-4.94q-7.11,0-11,4.87T381,118.51v2.95q0,9.26,3.86,14.35t11.1,5.11q7.11,0,10.92-4.92t3.86-14.34Z"/><path class="cls-1" d="M489.1,130.17a20.49,20.49,0,0,1-8.16,15.36q-7.37,5.59-19.41,5.6-13.17,0-20.72-7.82t-7.55-21.48v-3.69a32.63,32.63,0,0,1,3.48-15.36,24.07,24.07,0,0,1,9.95-10.18,30.69,30.69,0,0,1,15-3.55q11.86,0,19.1,5.6t8.38,15.73H475.08q-.51-5.85-3.69-8.49t-9.67-2.63q-7.05,0-10.56,4.46t-3.6,13.84v4.56q0,9.8,3.36,14.32T461.53,141q6.54,0,9.77-2.63t3.69-8.16Z"/><path class="cls-1" d="M513.38,150.3H499.27V89.88h14.11Z"/><path class="cls-1" d="M566,137.85H541.24l-4.71,12.45h-15L547,89.88H560.1l25.64,60.42h-15Zm-20.94-10.09h17.12l-8.61-22.61Z"/><path class="cls-1" d="M638.07,100h-21V150.3H603V100h-20.7V89.88h55.8Z"/><path class="cls-1" d="M687.33,124.11h-27.1V140.3H692v10H646.11V89.88h45.83V100H660.23v14.4h27.1Z"/><path class="cls-1" d="M735.83,134.45A6.12,6.12,0,0,0,733,129q-2.82-1.89-10.17-4a79.14,79.14,0,0,1-11.62-4.13q-11.67-5.57-11.67-15a13.43,13.43,0,0,1,3.13-8.74,20.19,20.19,0,0,1,9-6,37.81,37.81,0,0,1,13.14-2.16,34.45,34.45,0,0,1,13.09,2.34A20.35,20.35,0,0,1,746.82,98a15.86,15.86,0,0,1,3.18,9.71H735.89a7.69,7.69,0,0,0-3-6.45c-2-1.54-4.75-2.3-8.33-2.3s-6.13.64-8,1.93a5.85,5.85,0,0,0-2.87,5.08q0,2.94,3.36,4.94a41.15,41.15,0,0,0,9.9,3.73q12,3.19,17.55,7.93A14.88,14.88,0,0,1,750,134.36a14,14,0,0,1-6.73,12.31q-6.74,4.46-18.11,4.46a39.09,39.09,0,0,1-14.4-2.55,22.51,22.51,0,0,1-9.9-7,16.39,16.39,0,0,1-3.42-10.29H711.6q0,10,13.56,10c3.35,0,6-.6,7.86-1.8A5.68,5.68,0,0,0,735.83,134.45Z"/><path class="cls-1" d="M11.43,137.48l-.56-122.8v-.17h.19l115.24-.41h.19v.17l.24,52.59v.27l-.19.19L107.35,86.43a4.46,4.46,0,0,0,0,6.46,5.88,5.88,0,0,0,8.08,0L137.6,70.79l-.27-60.18c0-3.45-3.17-6.23-7-6.21L7,4.84c-3.86,0-7,2.82-7,6.27L.62,147.83c0,2.87,2.63,5.18,5.84,5.16l5,0,41-41.91-7.55-7.51Z"/><path d="M150.19,146.22,41.89,38.32a5.88,5.88,0,0,0-8.09,0h0a4.46,4.46,0,0,0,0,6.45l98.3,97.94.18.18H132L99.37,143h-.26l-.17-.17L43.86,88a5.87,5.87,0,0,0-8.08,0h0a4.46,4.46,0,0,0,0,6.45L94.28,152.7l52.77-.18C150.7,152.5,152.62,148.65,150.19,146.22Z"/></svg>